PathFileType	4	(X/Y/Z)	/Users/itak/Documents/Research/Walk-IL/dataset/trc/00035_00004.trc
DataRate	CameraRate	NumFrames	NumMarkers	Units	OrigDataRate	OrigDataStartFrame	OrigNumFrames
100.000000	100.000000	4	53	mm	100.000000	103	829
Frame#	Time	RPSI			LPSI			L3			STRN			T10			C7			CLAV			RBAK			LBAK			LSHO			LUPA			LAEL			LAOL			LWTS			LWPS			LFRA			LIFD			LHPS			LHTS			RSHO			RUPA			RAEL			RAOL			RWTS			RWPS			RFRA			RIFD			RHTS			RHPS			RBHD			LFHD			RFHD			LBHD			LHIP			RHIP			RASI			LASI			LKNE			LTHI			LANK			LTIP			LTOE			LMT1			LMT5			LHEE			RKNE			RTHI			RANK			RTIP			RTOE			RMT1			RMT5			RHEE			
		X1	Y1	Z1	X2	Y2	Z2	X3	Y3	Z3	X4	Y4	Z4	X5	Y5	Z5	X6	Y6	Z6	X7	Y7	Z7	X8	Y8	Z8	X9	Y9	Z9	X10	Y10	Z10	X11	Y11	Z11	X12	Y12	Z12	X13	Y13	Z13	X14	Y14	Z14	X15	Y15	Z15	X16	Y16	Z16	X17	Y17	Z17	X18	Y18	Z18	X19	Y19	Z19	X20	Y20	Z20	X21	Y21	Z21	X22	Y22	Z22	X23	Y23	Z23	X24	Y24	Z24	X25	Y25	Z25	X26	Y26	Z26	X27	Y27	Z27	X28	Y28	Z28	X29	Y29	Z29	X30	Y30	Z30	X31	Y31	Z31	X32	Y32	Z32	X33	Y33	Z33	X34	Y34	Z34	X35	Y35	Z35	X36	Y36	Z36	X37	Y37	Z37	X38	Y38	Z38	X39	Y39	Z39	X40	Y40	Z40	X41	Y41	Z41	X42	Y42	Z42	X43	Y43	Z43	X44	Y44	Z44	X45	Y45	Z45	X46	Y46	Z46	X47	Y47	Z47	X48	Y48	Z48	X49	Y49	Z49	X50	Y50	Z50	X51	Y51	Z51	X52	Y52	Z52	X53	Y53	Z53	

104	1.03	474.1756591796875	1076.9951171875	1008.250549316406	472.7041931152344	1066.534057617188	1170.66064453125	478.5616455078125	1136.468139648438	1103.494506835938	242.8478393554688	1315.306518554688	1080.264404296875	493.6391296386719	1280.266479492188	1121.49072265625	423.3951110839844	1543.618408203125	1130.81396484375	276.2999572753906	1442.936401367188	1093.060424804688	500.7170715332031	1412.08447265625	1060.057006835938	426.2985229492188	1502.677612304688	1228.499267578125	312.5107421875	1500.421630859375	1281.289306640625	338.6181945800781	1379.959350585938	1366.565307617188	355.1691589355469	1166.384399414062	1402.217407226562	425.5355834960938	1155.797119140625	1322.96435546875	292.3918151855469	907.849609375	1336.391723632812	358.5825500488281	898.4454956054688	1393.759887695312	347.3089599609375	1049.316528320312	1409.640625	277.7496337890625	721.9467163085938	1315.7734375	329.6044921875	806.9490966796875	1386.582153320312	272.2585754394531	813.975830078125	1345.630981445312	386.3171997070312	1528.5078125	944.82373046875	421.8050231933594	1463.531982421875	877.927001953125	496.10498046875	1203.175903320312	859.46728515625	471.5805053710938	1170.790771484375	950.85302734375	381.5274658203125	934.6235961914062	844.25	462.3510131835938	926.3274536132812	800.5818481445312	494.8067626953125	1126.50439453125	838.635009765625	371.1896362304688	746.8525390625	845.8889770507812	358.9808959960938	825.320068359375	817.868896484375	427.7354736328125	824.3912353515625	785.6327514648438	313.0330200195312	1721.70263671875	1176.602294921875	206.025390625	1710.6845703125	985.9461059570312	162.9401550292969	1711.347412109375	1075.438354492188	370.6412658691406	1716.844482421875	1044.59130859375	376.6942749023438	957.4683837890625	1274.188232421875	361.9219360351562	962.8676147460938	899.270263671875	261.4774475097656	996.9849853515625	972.217041015625	259.694091796875	1004.367797851562	1207.26025390625	328.0687866210938	514.5865478515625	1210.5087890625	352.8021545410156	650.0177612304688	1252.312866210938	403.4037780761719	37.64751052856445	1187.058349609375	395.2852478027344	281.9995422363281	1219.654052734375	180.2941131591797	42.01914596557617	1129.561279296875	239.1419830322266	50.11541748046875	1111.32373046875	281.2868957519531	36.94940185546875	1211.635498046875	470.0343627929688	45.68095016479492	1131.555419921875	270.0027465820312	531.6442260742188	940.516357421875	313.5769348144531	799.8238525390625	897.0607299804688	400.4757080078125	50.40965270996094	961.598876953125	293.1718139648438	405.0803833007812	940.2843627929688	167.4302368164062	56.54524612426758	992.549072265625	230.7370452880859	56.4151725769043	1025.205932617188	253.1367034912109	52.42025756835938	932.6376953125	453.3014831542969	48.88236618041992	1009.633422851562	
105	1.04	474.5242919921875	1077.0615234375	1008.64404296875	472.923095703125	1066.514404296875	1171.045166015625	478.8941650390625	1136.496337890625	1103.915405273438	243.2027587890625	1315.428833007812	1080.506591796875	493.9382934570312	1280.26220703125	1122.025756835938	423.7114868164062	1543.644897460938	1131.403564453125	276.654296875	1442.994995117188	1093.414794921875	501.10986328125	1412.139770507812	1060.669555664062	426.5228881835938	1502.638916015625	1229.049560546875	312.6935424804688	1500.410034179688	1281.754150390625	338.72998046875	1379.913208007812	1366.99658203125	355.2765197753906	1166.254516601562	1402.529541015625	425.6160888671875	1155.726684570312	1323.301879882812	292.5413513183594	907.7526245117188	1336.5771484375	358.6839599609375	898.31103515625	1394.006225585938	347.3847961425781	1049.224365234375	1409.90625	278.0568542480469	721.7296142578125	1315.975463867188	329.7749633789062	806.8797607421875	1386.732177734375	272.4666442871094	813.8902587890625	1345.810424804688	386.8307189941406	1528.630004882812	945.3489379882812	422.40478515625	1463.663208007812	878.4811401367188	496.850830078125	1203.377563476562	860.1264038085938	472.177734375	1170.953979492188	951.4603881835938	383.1828002929688	934.4219360351562	844.7570190429688	464.1187744140625	926.459228515625	801.1754150390625	495.7503662109375	1126.753295898438	839.2825927734375	373.6008605957031	746.5972290039062	846.4053344726562	361.1443786621094	825.016845703125	818.3283081054688	429.9503479003906	824.370849609375	786.210205078125	313.341796875	1721.802368164062	1177.229370117188	206.6489868164062	1710.833129882812	986.3939208984375	163.458251953125	1711.473266601562	1075.839721679688	371.1861267089844	1716.985961914062	1045.309448242188	376.88671875	957.4108276367188	1274.419799804688	362.2091979980469	963.0678100585938	899.48681640625	261.8477172851562	997.12841796875	972.451171875	259.9468994140625	1004.400329589844	1207.518310546875	328.2388916015625	514.6144409179688	1210.540405273438	352.902099609375	649.9852294921875	1252.371337890625	403.4028625488281	37.64777374267578	1187.057983398438	395.2567749023438	281.9761962890625	1219.706176757812	180.3134002685547	42.04454040527344	1129.588256835938	239.1526794433594	50.1235237121582	1111.3291015625	281.2847290039062	36.9432487487793	1211.639404296875	470.0330810546875	45.67512893676758	1131.558227539062	270.0365600585938	531.93603515625	940.4257202148438	313.8558959960938	800.0444946289062	897.2047729492188	403.5355529785156	51.28167343139648	961.7521362304688	293.8462524414062	405.1951599121094	940.0689697265625	170.2667694091797	56.46500778198242	991.1280517578125	233.4176483154297	56.47237014770508	1024.21630859375	256.4152221679688	52.79314804077148	931.8211669921875	456.0492553710938	49.78605651855469	1010.1767578125	
106	1.05	474.7827453613281	1077.119873046875	1008.974304199219	473.0921630859375	1066.4814453125	1171.369018554688	479.1809387207031	1136.512084960938	1104.26953125	243.5385437011719	1315.580932617188	1080.729614257812	494.2118225097656	1280.249389648438	1122.476318359375	424.0458374023438	1543.672485351562	1131.919799804688	277.0087585449219	1443.073120117188	1093.73583984375	501.4989318847656	1412.177124023438	1061.189453125	426.8016662597656	1502.603881835938	1229.527954101562	312.9436950683594	1500.419799804688	1282.181518554688	338.9220581054688	1379.88330078125	1367.37939453125	355.401123046875	1166.147216796875	1402.801635742188	425.7016296386719	1155.65283203125	1323.580322265625	292.6172180175781	907.6946411132812	1336.724853515625	358.7149963378906	898.1979370117188	1394.201293945312	347.4381408691406	1049.152709960938	1410.122314453125	278.23486328125	721.568115234375	1316.1240234375	329.8626098632812	806.845703125	1386.839477539062	272.5679626464844	813.843994140625	1345.957275390625	387.3337707519531	1528.755004882812	945.8129272460938	422.9379577636719	1463.795043945312	878.9664306640625	497.5074768066406	1203.567993164062	860.7128295898438	472.7295532226562	1171.108642578125	952.0006713867188	384.7369384765625	934.2202758789062	845.221435546875	465.7852783203125	926.5848388671875	801.7095947265625	496.5956115722656	1126.98974609375	839.8598022460938	375.9557189941406	746.3380737304688	846.9146118164062	363.2104797363281	824.7111206054688	818.7546997070312	432.0630187988281	824.3450317382812	786.744384765625	313.6625671386719	1721.911010742188	1177.80810546875	207.2561798095703	1710.984497070312	986.81591796875	163.9789123535156	1711.619384765625	1076.231689453125	371.7108154296875	1717.141845703125	1045.973388671875	377.0279541015625	957.3697509765625	1274.61962890625	362.3718566894531	963.2595825195312	899.6882934570312	262.1286315917969	997.282470703125	972.6793212890625	260.1890869140625	1004.459167480469	1207.785888671875	328.291259765625	514.648681640625	1210.5439453125	352.9240417480469	649.9683837890625	1252.3955078125	403.4014587402344	37.65142822265625	1187.058227539062	395.2504577636719	281.9642639160156	1219.728515625	180.3193359375	42.05706787109375	1129.603759765625	239.1580657958984	50.12675857543945	1111.332275390625	281.2799072265625	36.93703842163086	1211.642822265625	470.0325927734375	45.67512130737305	1131.5615234375	270.1721496582031	532.2081909179688	940.3430786132812	314.0358276367188	800.2383422851562	897.3665161132812	406.7289733886719	52.14625549316406	961.8787231445312	294.6168823242188	405.2763366699219	939.8527221679688	173.2728271484375	56.18513107299805	989.85009765625	236.2467651367188	56.4171028137207	1023.3095703125	259.8044738769531	53.03937911987305	931.0859375	458.9639282226562	50.73286819458008	1010.651245117188	
107	1.06	474.9575500488281	1077.167724609375	1009.244995117188	473.2123107910156	1066.432739257812	1171.63427734375	479.4154357910156	1136.51123046875	1104.559814453125	243.8733215332031	1315.753173828125	1080.945434570312	494.4550170898438	1280.227416992188	1122.844604492188	424.3986206054688	1543.697875976562	1132.361083984375	277.3772583007812	1443.167358398438	1094.036376953125	501.8784790039062	1412.192993164062	1061.618041992188	427.1347045898438	1502.5703125	1229.936279296875	313.2601318359375	1500.446166992188	1282.573364257812	339.1848754882812	1379.862548828125	1367.716430664062	355.5362854003906	1166.062866210938	1403.032592773438	425.7939758300781	1155.57470703125	1323.803100585938	292.6264038085938	907.6690673828125	1336.834228515625	358.6837158203125	898.1051025390625	1394.3447265625	347.4738464355469	1049.097900390625	1410.291015625	278.2715454101562	721.4682006835938	1316.208618164062	329.87451171875	806.8321533203125	1386.9091796875	272.5750732421875	813.8274536132812	1346.071899414062	387.8247375488281	1528.87646484375	946.21484375	423.4032287597656	1463.923950195312	879.3820190429688	498.0761108398438	1203.744140625	861.223388671875	473.2374572753906	1171.251342773438	952.4727783203125	386.1851196289062	934.0198364257812	845.6348876953125	467.3421325683594	926.7009887695312	802.1812744140625	497.3379211425781	1127.210327148438	840.3648071289062	378.2439270019531	746.0740356445312	847.41162109375	365.1686096191406	824.4027099609375	819.1495361328125	434.0656433105469	824.3145751953125	787.2318725585938	313.9991149902344	1722.026733398438	1178.339111328125	207.8488311767578	1711.139770507812	987.213623046875	164.4915771484375	1711.780517578125	1076.603271484375	372.218017578125	1717.306884765625	1046.581298828125	377.1144104003906	957.3402709960938	1274.788818359375	362.4169311523438	963.4382934570312	899.8768920898438	262.3175964355469	997.454345703125	972.8856811523438	260.4085998535156	1004.538391113281	1208.05224609375	328.2408447265625	514.6852416992188	1210.527709960938	352.8768615722656	649.9642944335938	1252.389892578125	403.3995056152344	37.65761184692383	1187.058837890625	395.2913818359375	281.96484375	1219.723388671875	180.31201171875	42.05759429931641	1129.607055664062	239.1584167480469	50.12551498413086	1111.334106445312	281.273193359375	36.93106460571289	1211.646240234375	470.0336608886719	45.68141937255859	1131.565185546875	270.420166015625	532.4437866210938	940.2584228515625	314.1171875	800.402587890625	897.5369873046875	410.0001831054688	52.97616577148438	961.9697265625	295.4794006347656	405.3219604492188	939.63037109375	176.3986206054688	55.72659301757812	988.758544921875	239.151123046875	56.26778793334961	1022.510192871094	263.2421875	53.16159820556641	930.4501342773438	461.9944458007812	51.70230865478516	1011.03515625	
